<svg xmlns="http://www.w3.org/2000/svg" fill="none" viewBox="0 0 318 265" height="265" width="318">
<path fill="white" d="M241.818 192.155C251.263 192.155 257.976 193.644 261.952 196.622C265.928 199.6 267.915 204.582 267.915 211.566C267.915 215.491 267.165 218.746 265.669 221.323C264.173 223.903 261.845 225.956 258.685 227.486C262.177 228.72 264.771 230.696 266.467 233.425C268.163 236.154 269.014 239.729 269.014 244.151C269.014 247.443 268.465 250.422 267.366 253.082C266.268 255.742 264.671 257.997 262.574 259.843C260.481 261.691 257.952 263.011 254.991 263.809C252.031 264.606 247.404 265.008 241.12 265.008H227.647V192.155H241.818ZM48.9844 265.004H34.4648L32.0186 252.229H17.3984L15.1533 265.004H0.632812L17.5986 192.155H32.8174L48.9844 265.004ZM73.4775 192.155C81.7615 192.155 87.7802 193.785 91.5391 197.044C95.2978 200.305 97.1767 205.511 97.1768 212.662C97.1768 217.851 96.2199 222.01 94.3057 225.137C92.3923 228.263 89.5075 230.474 85.6484 231.773L99.6191 265.004H84.3018L72.4277 234.865V265.004H58.3604V192.155H73.4775ZM135.387 219.948C135.584 221.545 135.812 223.499 136.074 225.811C136.337 228.121 136.568 230.225 136.766 232.118C136.962 234.015 137.166 236.008 137.38 238.102C137.594 240.195 137.702 241.961 137.702 243.388L139.222 228.226C139.629 224.602 139.989 221.841 140.296 219.944L145.001 192.155H163.494L169.626 265H154.906L153.358 231.172L153.209 227.58C153.209 224.82 153.176 222.622 153.109 220.995C153.044 219.365 152.937 216.68 152.785 212.936C152.636 209.194 152.561 206.824 152.561 205.825L143.081 265.004H132.554L123.623 205.428C123.623 206.692 123.476 209.688 123.175 214.41C122.874 219.133 122.726 223.227 122.726 226.685L122.425 231.372L120.18 265.004H105.756L112.897 192.155H131.621L135.387 219.948ZM195.106 205.328C195.939 207.525 196.754 209.885 197.553 212.413L199.646 219.547C200.244 216.918 200.892 214.407 201.591 212.013C201.957 210.849 202.296 209.785 202.614 208.821C202.932 207.857 203.304 206.823 203.736 205.725L209.025 192.155H223.245L206.279 230.775V265.004H191.866V230.775L175 192.155H190.318L195.106 205.328ZM291.858 192.155C300.143 192.155 306.162 193.785 309.92 197.044C313.679 200.305 315.558 205.511 315.558 212.662C315.558 217.851 314.601 222.01 312.688 225.137C310.773 228.263 307.888 230.474 304.03 231.773L318 265.004H302.683L290.809 234.865V265.004H276.741V192.155H291.858ZM241.722 252.028L241.719 252.031L242.717 252.08H243.764C247.456 252.08 250.151 251.334 251.847 249.841C253.543 248.349 254.394 245.975 254.394 242.725C254.393 239.242 253.547 236.755 251.847 235.259C250.151 233.767 247.355 233.017 243.466 233.017H241.722V252.028ZM24.9336 207.272C24.602 210.001 24.2428 212.744 23.8594 215.505C23.4759 218.265 23.0508 221.061 22.5879 223.887L20.042 240.9V240.904H29.7217C28.6922 235.715 27.7836 230.36 27.0029 224.836C26.2221 219.316 25.5313 213.46 24.9336 207.272ZM72.4238 223.734L72.4307 223.741L73.2324 223.789H74.082C77.2223 223.789 79.6032 222.913 81.2236 221.15C82.8436 219.392 83.6514 216.804 83.6514 213.384C83.6513 209.964 82.9127 207.321 81.4375 205.742C79.9587 204.167 77.5955 203.376 74.3379 203.376H72.4238V223.734ZM290.805 223.734L290.812 223.741L291.613 223.789H292.463C295.603 223.789 297.985 222.913 299.604 221.15C301.224 219.392 302.032 216.804 302.032 213.384C302.032 209.964 301.294 207.321 299.818 205.742C298.34 204.167 295.977 203.376 292.72 203.376H290.805V223.734ZM241.714 222.394H243.263C246.956 222.394 249.682 221.662 251.446 220.2C253.208 218.735 254.09 216.476 254.09 213.411C254.09 210.348 253.191 207.891 251.395 206.326C249.598 204.761 246.855 203.98 243.162 203.98H241.714V222.394ZM217.614 74.1123L159.293 122.185L119.74 90.1904V114.771L159.293 147.082L217.614 98.7441V122.848L159.293 170.919L101.022 123.511V49.6113L159.293 97.8184L199.021 65.1504V40.6055L159.293 73.5625L101.022 25.4189V1.40527L159.293 48.9482L217.614 0.610352V74.1123Z"></path>
</svg>
